# xmcd
#
# Track frame offsets:
#	150
#	15342
#	30586
#	42242
#	62775
#	82066
#	100575
#	118000
#	135729
#	149859
#	165881
#
# Disc length: 2400 seconds
#
# Revision: 1
# Processed by: cddbd v1.5.2PL0 Copyright (c) Steve Scherf et al.
# Submitted via: audiograbber 1.83.01
#
DISCID=8d095e0b
DTITLE=Andra Borlo - Pieces of Buenos Aires
DYEAR=2009
DGENRE=
TTITLE0=Leave Me Alone
TTITLE1=For You, Sister
TTITLE2=Little Love Song
TTITLE3=Where Does Love Go
TTITLE4=I Take Off My Crown
TTITLE5=Life of a Gypsy
TTITLE6=When I Was a Butterfly
TTITLE7=Caroline's Tango
TTITLE8=Betrayed
TTITLE9=You Smell Like Sunshine
TTITLE10=Una Manana Portena
EXTD=
EXTT0=
EXTT1=
EXTT2=
EXTT3=
EXTT4=
EXTT5=
EXTT6=
EXTT7=
EXTT8=
EXTT9=
EXTT10=
PLAYORDER=
